# Blender v2.68 (sub 0) OBJ File: 'cube.blend'
# www.blender.org
o Cube
v 1.000000 -1.000000 -1.000000
v 1.000000 -1.000000 1.000000
v -1.000000 -1.000000 1.000000
v -1.000000 -1.000000 -1.000000
v 1.000000 1.000000 -0.999999
v 0.999999 1.000000 1.000001
v -1.000000 1.000000 1.000000
v -1.000000 1.000000 -1.000000
vt 0.500000 0.000000
vt 1.000000 0.000000
vt 0.500000 0.500000
vt 0.000000 0.500000
vt 0.000000 1.000000
vt 1.000000 0.500000
vt 0.500000 1.000000
vt 0.000000 0.000000
vt 1.000000 1.000000
vn 0.000000 -1.000000 0.000000
vn -0.000000 1.000000 0.000000
vn 1.000000 -0.000000 0.000000
vn -0.000000 -0.000000 1.000000
vn -1.000000 -0.000000 -0.000000
vn 0.000000 0.000000 -1.000000
vn 1.000000 0.000000 0.000001
s off
f 1/1/1 2/2/1 4/3/1
f 5/4/2 8/3/2 6/5/2
f 1/3/3 5/6/3 2/7/3
f 2/8/4 6/1/4 3/4/4
f 3/8/5 7/1/5 4/4/5
f 5/8/6 1/1/6 8/4/6
f 2/2/1 3/6/1 4/3/1
f 8/3/2 7/7/2 6/5/2
f 5/6/7 6/9/7 2/7/7
f 6/1/4 7/3/4 3/4/4
f 7/1/5 8/3/5 4/4/5
f 1/1/6 4/3/6 8/4/6
