# Blender v2.71 (sub 0) OBJ File: 'octahedron.blend'
# www.blender.org
o Cube_Cube.002
v 0.000000 -1.000000 0.000000
v 0.000000 1.000000 0.000000
v -1.000000 0.000000 0.000000
v 1.000000 0.000000 0.000000
v 0.000000 0.000000 -1.000000
v 0.000000 0.000000 1.000000
vt 0.500000 0.500000
vt 0.500000 0.000000
vt 1.000000 0.500000
vt 0.000000 1.000000
vt 0.000000 0.500000
vt 1.000000 1.000000
vt 0.500000 1.000000
vt 1.000000 0.000000
vt 0.000000 0.000000
vn -0.577400 -0.577400 -0.577400
vn 0.577400 -0.577400 0.577400
vn -0.577400 -0.577400 0.577400
vn 0.577400 -0.577400 -0.577400
vn -0.577400 0.577400 0.577400
vn 0.577400 0.577400 0.577400
vn -0.577400 0.577400 -0.577400
vn 0.577400 0.577400 -0.577400
s off
f 3/1/1 5/2/1 1/3/1
f 4/4/2 6/5/2 1/1/2
f 6/1/3 3/5/3 1/2/3
f 5/1/4 4/6/4 1/7/4
f 2/3/5 3/6/5 6/1/5
f 2/3/6 6/2/6 4/8/6
f 2/1/7 5/7/7 3/4/7
f 2/5/8 4/9/8 5/2/8
